<?xml version="1.0" encoding="utf-8"?>
<!-- Generator: Adobe Illustrator 16.0.0, SVG Export Plug-In . SVG Version: 6.00 Build 0)  -->
<!DOCTYPE svg PUBLIC "-//W3C//DTD SVG 1.1//EN" "http://www.w3.org/Graphics/SVG/1.1/DTD/svg11.dtd">
<svg version="1.1" id="Layer_1" xmlns="http://www.w3.org/2000/svg" xmlns:xlink="http://www.w3.org/1999/xlink" x="0px" y="0px"
	 width="241.333px" height="85.333px" viewBox="0 0 241.333 85.333" enable-background="new 0 0 241.333 85.333"
	 xml:space="preserve">
<g>
	<path fill-rule="evenodd" clip-rule="evenodd" fill="#050505" d="M42.229,25.731c5.983-4.25,11.454-2.458,15.255,1.95
		c2.405-2.812,5.342-4.496,9.159-4.383c5.584,0.165,10.204,4.743,10.331,10.407c0.085,3.837,0.003,7.677,0.029,11.515
		c0.004,0.647-0.128,0.961-0.851,0.9c-1.105-0.093-2.525,0.438-3.24-0.202c-0.67-0.602-0.188-2.036-0.198-3.103
		c-0.027-2.838-0.006-5.677-0.01-8.516c-0.006-3.808-2.904-6.859-6.517-6.871c-3.636-0.012-6.588,2.98-6.629,6.792
		c-0.038,3.598-0.042,7.198,0.015,10.794c0.014,0.907-0.224,1.198-1.126,1.112c-0.99-0.095-2.318,0.325-2.905-0.176
		c-0.691-0.589-0.22-1.955-0.23-2.98c-0.031-2.919,0-5.838-0.014-8.757c-0.019-3.849-2.909-6.818-6.58-6.785
		c-3.571,0.033-6.47,3.055-6.485,6.792c-0.015,3.638-0.027,7.277,0.015,10.916c0.009,0.782-0.194,1.063-0.99,0.989
		c-0.753-0.069-1.524-0.073-2.276,0c-0.858,0.084-1.063-0.234-1.057-1.065c0.038-5.198,0.019-10.396,0.019-15.593
		c0-1.599,0.053-3.201-0.021-4.797c-0.039-0.839,0.275-1.036,1.023-0.979c0.676,0.05,1.371,0.091,2.036-0.008
		c1.118-0.167,1.417,0.316,1.253,1.316C42.202,25.191,42.229,25.394,42.229,25.731z"/>
	<path fill-rule="evenodd" clip-rule="evenodd" fill="#050505" d="M86.351,43.47c0,4.929-0.028,9.727,0.023,14.524
		c0.01,0.949-0.243,1.278-1.186,1.167c-0.982-0.116-2.268,0.408-2.889-0.197c-0.626-0.609-0.185-1.896-0.187-2.882
		c-0.016-10.397,0.012-20.794-0.04-31.191c-0.006-1.146,0.35-1.477,1.388-1.31c0.117,0.019,0.239,0.003,0.359,0.003
		c2.383,0,2.383,0,2.625,2.397c2.961-2.344,6.208-3.481,9.941-2.616c2.568,0.595,4.738,1.866,6.402,3.936
		c3.559,4.429,3.483,10.739-0.171,15C98.604,46.98,93.239,47.395,86.351,43.47z M93.775,42.158c4.035-0.007,7.489-3.49,7.445-7.511
		c-0.044-4.071-3.463-7.439-7.53-7.417c-4.013,0.022-7.334,3.39-7.34,7.442C86.346,38.775,89.707,42.164,93.775,42.158z"/>
	<path fill-rule="evenodd" clip-rule="evenodd" fill="#050505" d="M192.463,17.113c1.441-2.486,2.655-4.581,3.93-6.779
		c1.282,2.206,2.496,4.296,3.687,6.343c-0.082,0.29-0.281,0.243-0.404,0.224c-0.938-0.149-1.197,0.215-1.188,1.167
		c0.05,5.239-0.021,10.479,0.04,15.718c0.036,3.165-0.765,5.977-2.848,8.411c-3.163,3.697-8.568,4.935-13.218,2.976
		c-4.489-1.892-7.311-6.595-6.855-11.432c0.802-8.525,9.922-13.25,17.262-8.966c0.767,0.447,0.938,0.784,0.329,1.502
		c-0.591,0.697-0.911,1.735-1.625,2.187c-0.819,0.518-1.529-0.572-2.349-0.829c-3.877-1.214-8.146,1.106-9.207,5.093
		c-1.104,4.153,1.437,8.361,5.587,9.253c3.901,0.839,7.921-1.948,8.548-5.954c0.123-0.786,0.183-1.588,0.185-2.384
		c0.017-5.039-0.017-10.079,0.026-15.118C194.372,17.37,194.388,16.424,192.463,17.113z"/>
	<path fill-rule="evenodd" clip-rule="evenodd" fill="#A5B52F" d="M198.46,40.961c0,7.004,0.131,13.639-0.042,20.267
		c-0.138,5.285-4.936,9.853-10.411,10.314c-5.534,0.467-10.74-3.199-12.09-8.514c-1.169-4.603,0.49-9.32,4.265-12.127
		c3.612-2.687,8.677-2.96,12.552-0.751c0.852,0.485,1.086,0.873,0.391,1.678c-0.572,0.662-0.881,1.664-1.57,2.079
		c-0.794,0.479-1.501-0.548-2.297-0.805c-3.858-1.249-8.163,1.073-9.236,5.05c-1.119,4.149,1.409,8.373,5.553,9.275
		c3.894,0.849,7.938-1.942,8.581-5.928c0.378-2.344,0.154-4.706,0.187-7.06c0.036-2.678,0.008-5.355,0.008-8.033
		c0-0.476-0.046-0.93,0.443-1.274C196.24,44.111,197.37,42.781,198.46,40.961z"/>
	<path fill-rule="evenodd" clip-rule="evenodd" fill="#A5B52F" d="M149.857,61.175c-2.599,0-5.198,0.025-7.796-0.015
		c-0.836-0.012-0.995,0.191-0.79,1.029c1.297,5.291,6.577,7.303,11.005,4.091c0.849-0.615,1.466-0.751,2.269-0.067
		c0.36,0.307,0.814,0.502,1.224,0.751c1.229,0.744,1.228,0.745,0.221,1.686c-4.05,3.781-10,4.363-14.202,1.389
		c-4.551-3.222-6.201-9.639-3.838-14.917c2.125-4.743,6.755-7.345,11.631-6.534c4.804,0.798,8.654,5.106,9.063,10.14
		c0.198,2.448,0.198,2.448-2.311,2.448C154.174,61.175,152.015,61.175,149.857,61.175z M147.701,57.46
		c1.834,0,3.667-0.024,5.5,0.013c0.715,0.015,0.954-0.139,0.589-0.843c-1.266-2.437-3.152-4.092-5.979-4.088
		s-4.704,1.671-5.982,4.096c-0.405,0.77-0.04,0.84,0.612,0.831C144.194,57.445,145.948,57.46,147.701,57.46z"/>
	<path fill-rule="evenodd" clip-rule="evenodd" fill="#A5B52F" d="M214.255,61.175c-2.598,0-5.196,0.022-7.793-0.013
		c-0.828-0.012-1.126,0.112-0.885,1.065c1.326,5.229,6.542,7.254,10.922,4.095c0.965-0.695,1.625-0.744,2.466-0.035
		c0.181,0.152,0.404,0.255,0.609,0.378c1.814,1.082,1.855,1.136,0.14,2.477c-3.438,2.687-7.294,3.707-11.439,2.048
		c-4.122-1.649-6.372-4.937-6.955-9.309c-0.724-5.431,1.992-10.539,6.586-12.549c6.644-2.906,14.337,1.785,15.031,9.166
		c0.251,2.677,0.251,2.677-2.448,2.677C218.412,61.175,216.333,61.175,214.255,61.175z M218.33,57.459
		c-0.938-2.885-3.281-4.766-5.996-4.937c-2.353-0.148-5.091,1.626-6.15,4.019c-0.157,0.356-0.655,0.924,0.342,0.922
		C210.425,57.454,214.327,57.459,218.33,57.459z"/>
	<path fill-rule="evenodd" clip-rule="evenodd" fill="#050505" d="M25.646,35.953c-2.478,0-4.958,0.062-7.434-0.027
		c-1.137-0.041-1.153,0.438-0.901,1.251c1.377,4.451,5.717,7.329,10.826,3.669c0.766-0.549,1.251-0.585,1.939-0.042
		c0.435,0.342,0.924,0.651,1.437,0.851c1.234,0.479,0.836,0.966,0.13,1.619c-4.086,3.779-10.096,4.277-14.155,1.144
		c-4.473-3.453-5.839-9.974-3.146-15.015c2.468-4.621,7.318-6.812,12.069-5.452c4.808,1.375,8.17,6.206,7.921,11.284
		c-0.036,0.732-0.374,0.725-0.89,0.723C30.843,35.947,28.244,35.953,25.646,35.953z M29.672,32.402
		c-0.413-2.371-3.157-4.985-6.239-4.852c-2.659,0.116-5.322,2.315-5.818,4.852C21.609,32.402,25.599,32.402,29.672,32.402z"/>
	<path fill-rule="evenodd" clip-rule="evenodd" fill="#050505" d="M214.564,35.953c-2.479,0-4.962,0.062-7.438-0.027
		c-1.146-0.041-1.153,0.439-0.905,1.262c1.308,4.34,5.667,7.373,10.835,3.65c0.715-0.515,1.182-0.62,1.84-0.076
		c0.304,0.251,0.684,0.408,1.025,0.614c1.661,1.001,1.661,1.002,0.13,2.316c-3.479,2.988-8.62,3.627-12.409,1.542
		c-3.884-2.137-6.307-7.002-5.7-11.445c0.729-5.335,3.893-9.019,8.588-9.999c5.652-1.18,11.426,2.795,12.418,8.549
		c0.623,3.614,0.623,3.614-2.983,3.614C218.164,35.953,216.364,35.953,214.564,35.953z M218.597,32.408
		c-0.802-2.937-3.521-4.991-6.302-4.854c-2.675,0.131-5.341,2.377-5.758,4.854C210.531,32.408,214.524,32.408,218.597,32.408z"/>
	<path fill-rule="evenodd" clip-rule="evenodd" fill="#050505" d="M135.721,35.953c-2.56,0-5.119,0.027-7.678-0.016
		c-0.821-0.014-0.937,0.228-0.721,0.973c0.812,2.811,2.395,4.898,5.379,5.494c2.122,0.424,4.024-0.386,5.676-1.675
		c0.586-0.457,0.97-0.46,1.533-0.074c0.655,0.451,1.345,0.861,2.054,1.222c0.621,0.315,0.586,0.605,0.126,1.034
		c-3.344,3.114-7.218,4.482-11.65,2.994c-4.411-1.481-6.717-4.898-7.286-9.393c-0.718-5.675,2.462-10.863,7.401-12.445
		c6.212-1.99,12.842,2.32,13.661,8.881c0.374,3.004,0.374,3.004-2.615,3.004C139.641,35.953,137.681,35.953,135.721,35.953z
		 M133.692,32.423c1.757,0,3.514-0.028,5.27,0.013c0.75,0.018,0.897-0.172,0.596-0.87c-1.01-2.335-3.497-4.051-5.899-4.014
		c-2.431,0.037-4.853,1.776-5.83,4.119c-0.246,0.588-0.188,0.77,0.474,0.76C130.098,32.406,131.895,32.423,133.692,32.423z"/>
	<path fill-rule="evenodd" clip-rule="evenodd" fill="#050505" d="M152.697,25.682c0.523-0.324,1.014-0.646,1.521-0.94
		c6.951-4.019,15.669,0.999,15.689,9.031c0.01,3.758-0.021,7.517,0.02,11.275c0.008,0.794-0.13,1.179-1.022,1.075
		c-1.02-0.119-2.361,0.422-2.998-0.208c-0.643-0.638-0.183-1.977-0.198-3.007c-0.047-3.157,0.057-6.32-0.114-9.469
		c-0.188-3.438-3.207-6.083-6.574-6.011c-3.36,0.072-6.274,2.83-6.377,6.252c-0.112,3.795-0.069,7.596-0.031,11.393
		c0.008,0.854-0.238,1.138-1.073,1.047c-1.021-0.112-2.359,0.43-2.996-0.217c-0.635-0.644-0.188-1.975-0.19-3.002
		c-0.018-5.998,0.017-11.995-0.033-17.992c-0.009-1.015,0.285-1.375,1.266-1.216c0.272,0.044,0.559,0.007,0.838,0.007
		C152.452,23.701,152.452,23.701,152.697,25.682z"/>
	<path fill-rule="evenodd" clip-rule="evenodd" fill="#A5B52F" d="M112.084,48.664c0.186-0.044,0.225-0.062,0.264-0.061
		c1.435,0.014,3.11-0.425,4.237,0.173c1.088,0.576,1.206,2.398,1.735,3.679c1.794,4.34,3.552,8.694,5.405,13.241
		c1.44-3.549,2.805-6.906,4.165-10.266c0.809-1.996,1.631-3.987,2.404-5.996c0.229-0.594,0.493-0.907,1.197-0.871
		c1.234,0.063,2.474,0.018,3.89,0.018c-0.982,2.422-1.922,4.736-2.861,7.052c-2.023,4.99-4.059,9.975-6.058,14.974
		c-0.273,0.684-0.604,1.034-1.389,0.959c-1.224-0.116-2.722,0.462-3.612-0.235c-0.824-0.646-1.04-2.086-1.489-3.189
		c-2.511-6.169-5.012-12.343-7.515-18.515C112.34,49.336,112.231,49.043,112.084,48.664z"/>
	<path fill-rule="evenodd" clip-rule="evenodd" fill="#A5B52F" d="M167.537,50.707c2.231-1.542,4.632-2.189,7.139-2.559
		c0.904-0.134,1.214,0.107,0.897,0.997c-0.04,0.112-0.093,0.227-0.103,0.344c-0.154,1.942-0.857,3.049-3.097,3.474
		c-3.061,0.581-4.883,3.409-4.896,6.563c-0.017,3.636-0.033,7.272,0.017,10.908c0.013,0.896-0.227,1.234-1.135,1.13
		c-1.021-0.117-2.352,0.428-2.999-0.226c-0.645-0.65-0.198-1.975-0.201-3.001c-0.019-6.194,0.011-12.388-0.031-18.581
		c-0.006-0.946,0.252-1.32,1.2-1.183c0.352,0.051,0.718,0.008,1.077,0.008C167.395,48.581,167.395,48.581,167.537,50.707z"/>
	<path fill-rule="evenodd" clip-rule="evenodd" fill="#050505" d="M113.749,25.816c2.515-1.697,5.172-2.466,8.151-2.573
		c-0.317,1.294-0.656,2.477-0.886,3.681c-0.167,0.876-0.864,0.572-1.321,0.655c-3.102,0.564-5.39,2.704-5.862,5.686
		c-0.149,0.938-0.076,1.915-0.079,2.874c-0.008,2.999-0.03,5.999,0.016,8.998c0.012,0.781-0.192,1.063-0.989,0.99
		c-0.753-0.069-1.524-0.073-2.277,0c-0.858,0.084-1.064-0.233-1.057-1.065c0.038-4.958,0.019-9.917,0.019-14.876
		c0-1.8,0.06-3.602-0.025-5.397c-0.044-0.947,0.289-1.19,1.15-1.098c0.593,0.063,1.206,0.069,1.797,0
		c1.034-0.122,1.592,0.159,1.369,1.316C113.713,25.221,113.749,25.452,113.749,25.816z"/>
	<path fill-rule="evenodd" clip-rule="evenodd" fill="#050505" d="M231.63,68.427c-0.01,1.983-1.616,3.552-3.611,3.524
		c-2.015-0.028-3.532-1.587-3.518-3.614c0.014-2.01,1.578-3.535,3.604-3.514C230.117,64.844,231.64,66.402,231.63,68.427z
		 M226.306,66.542c-0.151-0.179-0.262-0.064-0.363,0.056c-0.822,0.968-0.873,2.418-0.122,3.421c0.814,1.087,2.191,1.443,3.402,0.878
		c1.213-0.565,1.887-1.928,1.559-3.152c-0.347-1.298-1.521-2.237-2.8-2.138c-0.686,0.054-1.485,0.054-1.713,0.976L226.306,66.542z"
		/>
	<path fill-rule="evenodd" clip-rule="evenodd" fill="#050505" d="M226.269,66.582c0.714-0.023,1.432-0.102,2.143-0.058
		c0.878,0.054,1.467,1.071,0.869,1.578c-0.745,0.632-0.263,0.909,0.032,1.375c0.126,0.198,0.495,0.463,0.222,0.691
		c-0.286,0.237-0.677,0.163-0.928-0.192c-0.114-0.161-0.241-0.315-0.344-0.484c-0.208-0.342-0.415-0.795-0.856-0.713
		c-0.491,0.09-0.187,0.589-0.247,0.9c-0.055,0.277-0.028,0.587-0.43,0.568c-0.394-0.017-0.384-0.317-0.387-0.604
		c-0.01-1.034-0.024-2.069-0.036-3.103C226.306,66.542,226.269,66.582,226.269,66.582z M227.817,68.025
		c0.296-0.024,0.711,0.071,0.73-0.363c0.022-0.486-0.417-0.478-0.763-0.504c-0.332-0.026-0.63,0.001-0.63,0.46
		C227.154,68.133,227.536,67.988,227.817,68.025z"/>
	<path fill-rule="evenodd" clip-rule="evenodd" fill="#FEFEFE" d="M227.816,68.025c-0.28-0.037-0.662,0.108-0.661-0.407
		c0-0.459,0.298-0.486,0.63-0.46c0.346,0.026,0.785,0.018,0.763,0.504C228.528,68.096,228.113,68,227.816,68.025z"/>
</g>
</svg>
