<?xml version="1.0" encoding="utf-8"?>
<!-- Generator: Adobe Illustrator 16.0.0, SVG Export Plug-In . SVG Version: 6.00 Build 0)  -->
<!DOCTYPE svg PUBLIC "-//W3C//DTD SVG 1.1//EN" "http://www.w3.org/Graphics/SVG/1.1/DTD/svg11.dtd">
<svg version="1.1" id="Layer_1" xmlns="http://www.w3.org/2000/svg" xmlns:xlink="http://www.w3.org/1999/xlink" x="0px" y="0px"
	 width="100px" height="40px" viewBox="0 0 100 40" enable-background="new 0 0 100 40" xml:space="preserve">
<g>
	<path fill="#50C93E" d="M79.732,19.911v2.37v3.611v0.114h-0.012c-0.063,1.625-1.367,2.925-2.973,2.925
		c-1.65,0-2.988-1.361-2.988-3.039c0-1.679,1.338-3.039,2.988-3.039c0.67,0,1.285,0.235,1.784,0.619v-0.016l0.944-1.367
		c-0.771-0.553-1.709-0.883-2.729-0.883c-2.584,0-4.679,2.087-4.679,4.661c0,2.575,2.095,4.663,4.679,4.663
		c2.573,0,4.657-2.076,4.672-4.641h0.003v-7.835C81.016,18.801,80.434,19.437,79.732,19.911z"/>
	<g>
		<path fill="#50C93E" d="M35.612,25.469h-1.7V10.961h1.7v1.05c0.851-0.713,1.917-1.248,3.043-1.248c1.266,0,2.451,0.476,3.36,1.366
			c0.888,0.909,1.383,2.094,1.383,3.357c0,1.267-0.496,2.452-1.383,3.362c-0.91,0.887-2.095,1.363-3.36,1.363
			c-1.126,0-2.192-0.535-3.043-1.245V25.469z M35.612,15.486c0,1.682,1.363,3.065,3.043,3.065c1.68,0,3.044-1.384,3.044-3.065
			c0-1.68-1.364-3.062-3.044-3.062C36.975,12.425,35.612,13.807,35.612,15.486z"/>
	</g>
	<path fill="#50C93E" d="M14.354,15.996H7.329v0.04c0.199,1.512,1.334,2.646,2.646,2.666c0.815-0.04,1.65-0.378,2.228-0.956
		l1.434,0.856c-0.358,0.398-0.755,0.736-1.213,1.016c-0.696,0.417-1.554,0.637-2.409,0.677c-1.193,0-2.288-0.497-3.084-1.395
		c-0.716-0.774-1.153-1.771-1.233-2.864c-0.02-0.14-0.02-0.278-0.02-0.417c0-0.359,0.038-0.718,0.12-1.075
		c0.179-0.836,0.577-1.592,1.133-2.209c0.796-0.874,1.911-1.374,3.084-1.374c1.194,0,2.291,0.5,3.105,1.374
		c0.557,0.617,0.974,1.373,1.134,2.209C14.395,15.359,14.373,15.817,14.354,15.996z M12.563,14.563l-0.021-0.039
		c-0.396-1.175-1.413-1.97-2.526-1.97c-1.093,0-2.108,0.795-2.529,1.97l-0.018,0.039H12.563z"/>
	<path fill="#50C93E" d="M31.785,15.239v4.896h-1.711v-4.896c0-1.492-1.213-2.726-2.685-2.726c-1.494,0-2.708,1.233-2.708,2.726
		v4.896H22.97v-4.896c0-1.492-1.194-2.726-2.687-2.726c-1.474,0-2.687,1.233-2.687,2.726v4.896h-1.71v-9.113h1.71v0.876
		c0.776-0.6,1.712-1.057,2.687-1.057c1.173,0,2.288,0.518,3.123,1.354c0.162,0.157,0.301,0.317,0.421,0.496
		c0.139-0.179,0.275-0.339,0.436-0.496c0.836-0.837,1.95-1.354,3.126-1.354c1.172,0,2.266,0.438,3.103,1.273
		C31.328,12.952,31.785,14.046,31.785,15.239z"/>
	<path fill="#50C93E" d="M46.81,11.957c0.575-0.637,2.267-1.134,3.321-1.134l-0.417,1.712c-1.591,0-2.903,1.212-2.903,2.747v4.854
		h-1.712v-9.113h1.712L46.81,11.957L46.81,11.957z"/>
	<path fill="#50C93E" d="M59.307,15.996h-7.027v0.04c0.201,1.512,1.334,2.646,2.648,2.666c0.814-0.04,1.649-0.378,2.227-0.956
		l1.435,0.856c-0.358,0.398-0.756,0.736-1.213,1.016c-0.696,0.417-1.554,0.637-2.41,0.677c-1.192,0-2.286-0.497-3.083-1.395
		c-0.715-0.774-1.154-1.771-1.232-2.864c-0.021-0.14-0.021-0.278-0.021-0.417c0-0.359,0.039-0.718,0.118-1.075
		c0.178-0.836,0.578-1.592,1.134-2.209c0.796-0.874,1.911-1.374,3.083-1.374c1.195,0,2.291,0.5,3.105,1.374
		c0.558,0.617,0.976,1.373,1.133,2.209C59.346,15.359,59.326,15.817,59.307,15.996z M57.516,14.563l-0.021-0.039
		c-0.396-1.175-1.411-1.97-2.527-1.97c-1.093,0-2.107,0.795-2.523,1.97l-0.021,0.039H57.516z"/>
	<path fill="#50C93E" d="M69.753,15.239v4.896h-1.711v-4.896c0-1.492-1.194-2.726-2.687-2.726c-1.475,0-2.688,1.233-2.688,2.726
		v4.896h-1.712v-9.113h1.712v0.876c0.775-0.6,1.711-1.057,2.688-1.057c1.174,0,2.287,0.438,3.123,1.273
		C69.294,12.952,69.753,14.046,69.753,15.239z"/>
	<path fill="#50C93E" d="M91.503,15.996h-7.024v0.04c0.196,1.512,1.332,2.646,2.646,2.666c0.813-0.04,1.65-0.378,2.229-0.956
		l1.432,0.856c-0.355,0.398-0.756,0.736-1.213,1.016c-0.695,0.417-1.553,0.637-2.407,0.677c-1.194,0-2.288-0.497-3.084-1.395
		c-0.718-0.774-1.155-1.771-1.233-2.864c-0.021-0.14-0.021-0.278-0.021-0.417c0-0.359,0.039-0.718,0.12-1.075
		c0.18-0.836,0.576-1.592,1.134-2.209c0.796-0.874,1.91-1.374,3.084-1.374c1.194,0,2.29,0.5,3.104,1.374
		c0.558,0.617,0.974,1.373,1.135,2.209C91.544,15.359,91.521,15.817,91.503,15.996z M89.71,14.563l-0.021-0.039
		c-0.396-1.175-1.414-1.97-2.525-1.97c-1.094,0-2.107,0.795-2.527,1.97l-0.019,0.039H89.71z"/>
	<path fill="#50C93E" d="M55.628,21.188l-3.795,9.346h-1.897l-3.793-9.346h1.897l2.854,7.019l2.838-7.019H55.628z"/>
	<path fill="#50C93E" d="M65.172,26.289h-7.201v0.041c0.204,1.548,1.366,2.711,2.715,2.73c0.834-0.039,1.693-0.386,2.285-0.978
		l1.469,0.876c-0.367,0.409-0.777,0.757-1.244,1.041c-0.715,0.428-1.594,0.65-2.467,0.691c-1.228,0-2.349-0.51-3.164-1.426
		c-0.734-0.798-1.184-1.814-1.267-2.938c-0.021-0.145-0.021-0.288-0.021-0.43c0-0.369,0.041-0.735,0.121-1.104
		c0.186-0.855,0.593-1.632,1.164-2.264c0.816-0.897,1.959-1.407,3.164-1.407c1.223,0,2.344,0.51,3.181,1.407
		c0.571,0.632,0.999,1.406,1.163,2.264C65.214,25.636,65.191,26.104,65.172,26.289z M63.337,24.816l-0.021-0.039
		c-0.407-1.203-1.447-2.02-2.588-2.02c-1.125,0-2.166,0.815-2.595,2.02l-0.021,0.039H63.337z"/>
	<path fill="#50C93E" d="M68.74,22.146c0.592-0.652,2.324-1.162,3.406-1.162l-0.428,1.755c-1.632,0-2.979,1.243-2.979,2.813v4.979
		h-1.754v-9.345h1.754V22.146z"/>
	<path fill="#50C93E" d="M91.43,26.289H84.23v0.041c0.205,1.548,1.367,2.711,2.713,2.73c0.836-0.039,1.693-0.386,2.285-0.978
		l1.47,0.876c-0.367,0.409-0.776,0.757-1.244,1.041c-0.718,0.428-1.595,0.65-2.468,0.691c-1.226,0-2.348-0.51-3.163-1.426
		c-0.736-0.798-1.183-1.814-1.267-2.938c-0.019-0.145-0.019-0.288-0.019-0.43c0-0.369,0.04-0.735,0.12-1.104
		c0.184-0.855,0.592-1.632,1.164-2.264c0.816-0.897,1.957-1.407,3.164-1.407c1.223,0,2.346,0.51,3.18,1.407
		c0.572,0.632,1,1.406,1.162,2.264C91.475,25.636,91.454,26.104,91.43,26.289z M89.596,24.816l-0.02-0.039
		c-0.409-1.203-1.45-2.02-2.59-2.02c-1.125,0-2.166,0.815-2.592,2.02l-0.021,0.039H89.596z"/>
	<path fill="#50C93E" d="M82.111,8.228L80.57,5.573l-1.541,2.658l0.703-0.001v3.656v3.611v0.115h-0.012
		c-0.063,1.622-1.367,2.923-2.973,2.923c-1.65,0-2.988-1.36-2.988-3.038c0-1.68,1.338-3.04,2.988-3.04
		c0.67,0,1.285,0.236,1.784,0.616v-0.011l0.944-1.368c-0.771-0.554-1.709-0.884-2.729-0.884c-2.584,0-4.679,2.088-4.679,4.662
		c0,2.575,2.095,4.662,4.679,4.662c2.573,0,4.657-2.076,4.672-4.638h0.003V8.228H82.111z"/>
	<g>
		<g>
			<path fill="#50C93E" d="M93.501,27.801c-0.799,0-1.444,0.648-1.444,1.449c0,0.799,0.646,1.441,1.444,1.441
				s1.451-0.644,1.451-1.441C94.952,28.449,94.3,27.801,93.501,27.801z M93.501,30.402c-0.633,0-1.151-0.516-1.151-1.152
				c0-0.641,0.52-1.156,1.151-1.156c0.642,0,1.158,0.518,1.158,1.156S94.143,30.402,93.501,30.402z"/>
			<g>
				<path fill="#50C93E" d="M92.813,30.014v-1.531h0.656c0.156,0,0.278,0.014,0.354,0.043c0.073,0.026,0.137,0.076,0.18,0.146
					c0.04,0.069,0.065,0.15,0.065,0.243c0,0.112-0.039,0.206-0.106,0.283c-0.063,0.073-0.168,0.124-0.302,0.14
					c0.066,0.041,0.123,0.085,0.166,0.13c0.047,0.05,0.104,0.132,0.182,0.249l0.186,0.299h-0.369L93.6,29.682
					c-0.074-0.119-0.136-0.193-0.164-0.226c-0.033-0.033-0.063-0.052-0.097-0.065c-0.028-0.008-0.086-0.015-0.151-0.015H93.12v0.638
					H92.813z M93.12,29.131h0.229c0.15,0,0.24-0.011,0.285-0.02c0.035-0.01,0.063-0.033,0.08-0.063
					c0.021-0.032,0.039-0.069,0.039-0.116c0-0.052-0.018-0.095-0.05-0.123c-0.022-0.033-0.063-0.056-0.114-0.063
					c-0.027-0.002-0.1-0.006-0.225-0.006H93.12V29.131z"/>
			</g>
		</g>
	</g>
</g>
</svg>
